<svg xmlns="http://www.w3.org/2000/svg" viewBox="0 0 512 512" role="img" aria-label="Sudolux">
  <rect width="512" height="512" rx="112" fill="#07111f"/>
  <rect x="18" y="18" width="476" height="476" rx="96" fill="none" stroke="#2f6f8c" stroke-width="12"/>
  <path d="M259.7958115183246 400.99999999999994C331.34685863874347 400.99999999999994 374.42931937172773 370.0641361256544 374.42931937172773 314.0759162303665C374.42931937172773 271.1832460732984 348.4280104712042 240.81675392670155 285.98691099476446 227.53141361256542L262.8324607329843 222.5968586387434C236.07198952879583 216.9031413612565 224.87434554973822 209.12172774869106 224.87434554973822 195.6465968586387C224.87434554973822 183.1204188481675 235.31282722513092 174.01047120418846 259.0366492146597 174.01047120418846C281.0510471204188 174.01047120418846 295.4751308900523 183.87958115183242 298.892670157068 201.70680628272247H369.30418848167536C366.0764397905759 146.85602094240836 325.461780104712 111.0 258.6570680628272 111.0C192.42146596858637 111.0 151.23769633507852 146.4764397905759 151.23769633507852 201.5170157068063C151.23769633507852 245.73717277486907 179.1371727748691 275.7240837696335 238.7303664921466 288.2502617801047L266.43979057591623 294.1335078534031C294.9083769633508 300.2065445026178 306.8651832460733 307.7984293193717 306.8651832460733 322.7918848167539C306.8651832460733 337.4057591623037 293.95968586387435 347.8442408376963 266.8193717277487 347.8442408376963C237.78141361256543 347.8442408376963 219.19528795811518 335.3180628272251 216.53795811518322 313.696335078534L145.17748691099476 313.696335078534C148.97434554973822 370.0641361256544 190.1439790575916 400.99999999999994 259.7958115183246 400.99999999999994Z" fill="#58d3f5"/>
</svg>
